<?xml version="1.0" encoding="UTF-8" standalone="no"?>
<!-- Created with Inkscape (http://www.inkscape.org/) -->

<svg
   width="210mm"
   height="297mm"
   viewBox="0 0 210 297"
   version="1.1"
   id="svg182"
   xml:space="preserve"
   sodipodi:docname="rocketsidekick.svg"
   inkscape:export-filename="trdy.png"
   inkscape:export-xdpi="327.97656"
   inkscape:export-ydpi="327.97656"
   inkscape:version="1.2.2 (732a01da63, 2022-12-09)"
   xmlns:inkscape="http://www.inkscape.org/namespaces/inkscape"
   xmlns:sodipodi="http://sodipodi.sourceforge.net/DTD/sodipodi-0.dtd"
   xmlns="http://www.w3.org/2000/svg"
   xmlns:svg="http://www.w3.org/2000/svg"><sodipodi:namedview
     id="namedview184"
     pagecolor="#000000"
     bordercolor="#000000"
     borderopacity="0.25"
     inkscape:showpageshadow="2"
     inkscape:pageopacity="0"
     inkscape:pagecheckerboard="0"
     inkscape:deskcolor="#d1d1d1"
     inkscape:document-units="mm"
     showgrid="false"
     inkscape:zoom="1"
     inkscape:cx="416.5"
     inkscape:cy="424.5"
     inkscape:window-width="2560"
     inkscape:window-height="1351"
     inkscape:window-x="-9"
     inkscape:window-y="-9"
     inkscape:window-maximized="1"
     inkscape:current-layer="layer1" /><defs
     id="defs179"><linearGradient
       id="linearGradient21569"
       inkscape:swatch="solid"><stop
         style="stop-color:#dc5454;stop-opacity:1;"
         offset="0"
         id="stop21567" /></linearGradient></defs><g
     inkscape:groupmode="layer"
     id="layer2"
     inkscape:label="Layer 2"
     transform="matrix(1.1225425,0,0,1.1225425,-26.373249,-22.667482)"><path
       id="path238-6"
       style="fill:#ff0000;stroke-width:0.264583"
       d="m 50.329873,191.42576 c 0.12318,-6.73697 0.500374,-9.15798 2.239467,-14.37394 1.911865,-5.73414 4.194947,-9.46278 8.309266,-13.57037 3.043959,-3.03898 3.541196,-3.20003 4.47064,-1.44801 l 0.600354,1.13168 -0.924981,1.44801 c -3.508189,5.49188 -5.529144,12.84613 -5.596519,20.36572 l -0.02963,3.30729 3.465007,-0.0356 c 7.452432,-0.0766 15.50814,-2.33304 20.457118,-5.73021 l 1.167961,-0.80173 1.147144,0.60856 c 1.792409,0.95087 1.628066,1.43506 -1.564834,4.61028 -4.954717,4.92729 -10.134976,7.62868 -18.404952,9.59777 -2.488877,0.5926 -3.584187,0.68933 -9.13726,0.80695 l -6.309398,0.13364 z"
       sodipodi:nodetypes="sssscsscsscsssscs" /><path
       id="path236-5"
       style="fill:#0000ff;stroke-width:0.264583"
       d="m 183.84449,64.734729 -6.04821,0.13643 c -5.05608,0.1138 -6.63477,0.24956 -9.6206,0.82889 -15.35199,2.97869 -26.46688,7.76245 -37.17396,15.99954 -6.13016,4.71602 -18.74574,18.534211 -35.769905,39.180041 l -4.463807,5.41414 -11.887644,0.01 -11.887129,0.0103 -6.29419,8.05378 c -5.254333,6.72338 -6.294189,8.19508 -6.294189,8.9085 0,0.99159 -1.342051,0.60229 11.426692,3.31556 l 7.854818,1.66914 0.175183,1.27538 c 0.16136,1.17322 0.03445,1.60187 -1.584399,5.35213 -1.706151,3.95248 -1.750618,4.11135 -1.457276,5.21363 0.505151,1.89818 3.05798,5.3827 6.666777,9.09971 4.965818,5.11471 8.583577,7.90952 11.122837,8.59327 0.94074,0.25332 1.28903,0.15148 5.086507,-1.48776 3.81333,-1.64612 4.16307,-1.74785 5.41156,-1.57614 0.7341,0.10097 1.334795,0.25685 1.334795,0.34675 0,0.21738 3.69609,17.51514 3.86953,18.10949 h -5.2e-4 c 0.0843,0.289 0.39612,0.46343 0.82941,0.46302 0.34101,0.039 0.84228,0.0173 1.27907,0.0129 0.47756,0.008 3.10206,-1.82886 7.91321,-5.57434 3.92906,-3.05876 7.42732,-5.88137 7.77369,-6.27248 l 0.62942,-0.71107 -0.19379,-11.67784 -0.1943,-11.67732 4.45915,-3.67833 c 14.3063,-11.80152 27.36448,-23.23722 33.846,-29.64057 11.68407,-11.54313 18.63263,-25.349949 22.22242,-44.154931 0.59023,-3.09188 0.72898,-4.68236 0.83819,-9.62267 z"
       sodipodi:nodetypes="ccsscccccssccsssssssccccscccccsscc" /></g><g
     inkscape:label="Layer 1"
     inkscape:groupmode="layer"
     id="layer1"
     transform="matrix(1.1230465,0,0,1.1230465,-26.373166,-22.485178)"><path
       style="fill:#000000;stroke-width:0.264583"
       d="m 50.307262,191.40055 c 0.12318,-6.73697 0.500374,-9.15798 2.239467,-14.37394 1.911865,-5.73414 4.194947,-9.46278 8.309266,-13.57037 3.043959,-3.03898 3.541196,-3.20003 4.47064,-1.44801 l 0.600354,1.13168 -0.924981,1.44801 c -3.508189,5.49188 -5.529144,12.84613 -5.596519,20.36572 l -0.02963,3.30729 3.465007,-0.0356 c 7.452432,-0.0766 15.50814,-2.33304 20.457118,-5.73021 l 1.167961,-0.80173 1.147144,0.60856 c 1.792409,0.95087 1.628066,1.43506 -1.564834,4.61028 -4.954717,4.92729 -10.134976,7.62868 -18.404952,9.59777 -2.488877,0.5926 -3.584187,0.68933 -9.13726,0.80695 l -6.309398,0.13364 z m 11.022024,5.06282 c 6.935501,-0.99496 12.878888,-3.12062 17.790565,-6.36282 1.930373,-1.27424 6.846631,-5.89681 6.846631,-6.43763 0,-0.15394 -0.324192,-0.44974 -0.720424,-0.65735 -0.671512,-0.35184 -0.798539,-0.32372 -1.871075,0.4142 -3.273629,2.25232 -9.193016,4.32353 -14.638776,5.12216 -3.140418,0.46054 -9.570228,0.64838 -9.930322,0.29009 -0.356427,-0.35463 -0.165843,-6.83009 0.293136,-9.95983 0.794724,-5.41915 2.59984,-10.62807 4.963652,-14.3233 0.87197,-1.36311 0.909431,-1.50755 0.562622,-2.16946 -0.204351,-0.39002 -0.472314,-0.70913 -0.595472,-0.70913 -0.503419,0 -4.110989,3.6445 -5.689486,5.74773 -2.905215,3.87098 -5.324029,9.51639 -6.491722,15.15142 -0.704727,3.40086 -1.329713,9.15703 -1.333469,12.28134 l -0.0028,2.35653 4.034896,-0.17492 c 2.219192,-0.0962 5.271127,-0.35228 6.782076,-0.56903 z"
       id="path238" /><path
       id="path236"
       style="fill:#000000;stroke-width:0.264583"
       d="m 183.76191,64.543347 -6.04821,0.136426 c -5.05608,0.113797 -6.63477,0.249563 -9.6206,0.82889 -15.35199,2.97869 -26.46688,7.762446 -37.17396,15.99954 -6.13016,4.716016 -18.74574,18.534207 -35.769909,39.180037 l -4.46381,5.41414 -11.887647,0.01 -11.887129,0.0103 -6.29419,8.05378 c -5.254333,6.72338 -6.294189,8.19508 -6.294189,8.9085 0,0.99159 -1.342051,0.60229 11.426692,3.31556 l 7.854818,1.66914 0.175183,1.27538 c 0.16136,1.17322 0.03445,1.60187 -1.584399,5.35213 -1.706151,3.95248 -1.750618,4.11135 -1.457276,5.21363 0.505151,1.89818 3.05798,5.3827 6.666777,9.09971 4.965818,5.11471 8.583574,7.90952 11.122835,8.59327 0.940741,0.25332 1.289027,0.15148 5.086511,-1.48776 3.813326,-1.64612 4.163074,-1.74785 5.411556,-1.57614 0.734105,0.10097 1.334807,0.25685 1.334807,0.34675 0,0.21738 3.69609,17.51514 3.86953,18.10949 h -5.2e-4 c 0.0843,0.289 0.39612,0.46343 0.82941,0.46302 0.45322,-4.3e-4 0.61166,-0.054 0.48834,-0.18448 -0.0387,-0.041 -0.10567,-0.0892 -0.19947,-0.14625 -0.29244,-0.17754 -1.072,-3.48877 -2.33268,-9.45885 -1.06014,-5.02047 -2.03884,-9.26845 -2.17506,-9.43973 -0.13622,-0.17128 -0.984655,-0.3875 -1.885153,-0.4806 -1.596072,-0.16503 -1.736414,-0.12522 -5.584672,1.57407 -3.713535,1.6398 -4.003758,1.72499 -4.894792,1.44022 -4.387594,-1.40228 -15.525378,-12.54005 -16.927649,-16.92765 -0.284775,-0.89103 -0.199572,-1.18125 1.440222,-4.89479 1.703414,-3.85761 1.739361,-3.98539 1.572514,-5.59862 -0.09391,-0.90797 -0.306357,-1.73453 -0.472323,-1.8371 -0.165965,-0.10258 -4.532267,-1.09007 -9.702766,-2.19418 -5.920541,-1.26428 -9.400977,-2.12341 -9.400977,-2.32027 0,-0.52546 12.365013,-16.20411 12.811621,-16.24501 0.229727,-0.021 5.537239,-0.009 11.794629,0.0269 l 11.377083,0.0651 0.696082,-0.75448 c 0.382726,-0.41496 3.041744,-3.59683 5.9092,-7.07089 15.897941,-19.261098 27.717731,-32.17016 33.611381,-36.70835 10.62163,-8.178789 22.54906,-13.334864 36.92953,-15.9644 4.64973,-0.850224 10.12132,-1.46721 13.01058,-1.467611 l 2.3151,-5.16e-4 -5.1e-4,2.182812 c -1.8e-4,1.200546 -0.18534,3.790158 -0.41135,5.754688 -2.43493,21.16484 -10.13406,38.212757 -22.98774,50.899737 -6.36061,6.2781 -20.94076,19.01869 -34.02273,29.73048 l -4.44469,3.63957 0.15038,11.39466 c 0.0827,6.2672 0.0753,11.69408 -0.0165,12.05973 -0.15501,0.61759 -1.73353,1.90791 -14.4384,11.80134 -0.31125,0.24237 -0.55949,0.43447 -0.74827,0.58653 -0.18879,0.15206 -0.31819,0.26412 -0.39119,0.34572 -0.073,0.0816 -0.0897,0.13291 -0.0537,0.16381 0.036,0.0308 0.12475,0.0413 0.26303,0.0413 0.43208,-2e-5 3.10206,-1.82886 7.91321,-5.57434 3.92906,-3.05876 7.42732,-5.88137 7.77369,-6.27248 l 0.62942,-0.71107 -0.19379,-11.67784 -0.1943,-11.67732 4.45915,-3.67833 c 14.3063,-11.80152 27.36448,-23.23722 33.846,-29.64057 11.68407,-11.54313 18.63263,-25.349943 22.22242,-44.154926 0.59023,-3.091878 0.72898,-4.682358 0.83819,-9.622668 z" /><text
       xml:space="preserve"
       style="font-size:2.82713px;fill:#000000;fill-opacity:0.02352941;stroke:#ffffff;stroke-width:0.29651488;stroke-dasharray:none;stroke-opacity:1"
       x="61.299595"
       y="88.656799"
       id="text6130"><tspan
         sodipodi:role="line"
         id="tspan6128"
         style="stroke-width:0.29651488;fill:#000000;fill-opacity:0.02352941;stroke:#ffffff;stroke-opacity:1;stroke-dasharray:none"
         x="61.299595"
         y="88.656799" /></text><text
       xml:space="preserve"
       style="font-style:normal;font-variant:normal;font-weight:normal;font-stretch:normal;font-size:18.8025px;font-family:'ROG Fonts';-inkscape-font-specification:'ROG Fonts';fill:#dc5454;fill-opacity:1;fill-rule:evenodd;stroke:#ffffff;stroke-width:1.13928;stroke-dasharray:none;stroke-opacity:1"
       x="77.541733"
       y="110.41179"
       id="text20742"><tspan
         sodipodi:role="line"
         id="tspan20740"
         style="fill:#ff0000;fill-opacity:1;fill-rule:evenodd;stroke-width:1.13928;stroke-dasharray:none"
         x="77.541733"
         y="110.41179">rocket</tspan></text><text
       xml:space="preserve"
       style="font-style:normal;font-variant:normal;font-weight:normal;font-stretch:normal;font-size:17.7612px;font-family:'ROG Fonts';-inkscape-font-specification:'ROG Fonts';fill:#dc5454;fill-opacity:1;fill-rule:evenodd;stroke:#ffffff;stroke-width:1.07619;stroke-dasharray:none;stroke-opacity:1"
       x="87.765739"
       y="132.85655"
       id="text20742-8"><tspan
         sodipodi:role="line"
         id="tspan20740-2"
         style="fill:#f64b00;fill-opacity:1;fill-rule:evenodd;stroke-width:1.07619;stroke-dasharray:none"
         x="87.765739"
         y="132.85655">sidekick</tspan></text></g></svg>
